<?xml version="1.0" encoding="UTF-8"?>
<svg width="22px" height="16px" viewBox="0 0 22 16" version="1.1" xmlns="http://www.w3.org/2000/svg" xmlns:xlink="http://www.w3.org/1999/xlink">
    <!-- Generator: Sketch 46 (44423) - http://www.bohemiancoding.com/sketch -->
    <title>ic_connect</title>
    <desc>Created with Sketch.</desc>
    <defs></defs>
    <g id="Groups" stroke="none" stroke-width="1" fill="none" fill-rule="evenodd">
        <g id="Groups_tablet" transform="translate(-209.000000, -721.000000)" fill="#FFFFFF">
            <g id="GROUP-Copy-4" transform="translate(24.000000, 575.000000)">
                <g id="Members" transform="translate(24.000000, 126.000000)">
                    <g id="2_User" transform="translate(144.000000, 0.000000)">
                        <path d="M31,28 C33.21,28 35,26.21 35,24 C35,21.79 33.21,20 31,20 C28.79,20 27,21.79 27,24 C27,26.21 28.79,28 31,28 L31,28 Z M22,26 L22,23 L20,23 L20,26 L17,26 L17,28 L20,28 L20,31 L22,31 L22,28 L25,28 L25,26 L22,26 L22,26 Z M31,30 C28.33,30 23,31.34 23,34 L23,36 L39,36 L39,34 C39,31.34 33.67,30 31,30 L31,30 Z" id="ic_connect"></path>
                    </g>
                </g>
            </g>
        </g>
    </g>
</svg>