<?xml version="1.0" encoding="UTF-8" standalone="no"?>
<svg width="40px" height="40px" viewBox="0 0 40 40" version="1.1" xmlns="http://www.w3.org/2000/svg" xmlns:xlink="http://www.w3.org/1999/xlink">
    <!-- Generator: Sketch 44.1 (41455) - http://www.bohemiancoding.com/sketch -->
    <title>ic_forum</title>
    <desc>Created with Sketch.</desc>
    <defs></defs>
    <g id="Main" stroke="none" stroke-width="1" fill="none" fill-rule="evenodd">
        <g id="Mobile-Wide" transform="translate(-28.000000, -239.000000)">
            <g id="Group-Copy-2" transform="translate(0.000000, 211.000000)">
                <g id="ic_forum" transform="translate(24.000000, 24.000000)">
                    <g id="Icon-24px">
                        <polygon id="Shape" points="0 0 48 0 48 48 0 48"></polygon>
                        <path d="M42,12 L38,12 L38,30 L12,30 L12,34 C12,35.1 12.9,36 14,36 L36,36 L44,44 L44,14 C44,12.9 43.1,12 42,12 L42,12 Z M34,24 L34,6 C34,4.9 33.1,4 32,4 L6,4 C4.9,4 4,4.9 4,6 L4,34 L12,26 L32,26 C33.1,26 34,25.1 34,24 L34,24 Z" id="Shape" fill="#0E9D58"></path>
                    </g>
                </g>
            </g>
        </g>
    </g>
</svg>